<mxfile host="drawio-plugin" modified="2024-03-04T20:02:07.558Z" agent="5.0 (X11; Linux x86_64) AppleWebKit/537.36 (KHTML, like Gecko) Chrome/111.0.0.0 Safari/537.36" etag="Zk6zQkyyEBIOi6QKKrut" version="20.5.3" type="embed"><diagram id="23iRSUPoRavnBvh4doch" name="Page-1"><mxGraphModel dx="947" dy="788" grid="1" gridSize="10" guides="1" tooltips="1" connect="1" arrows="1" fold="1" page="1" pageScale="1" pageWidth="827" pageHeight="1169" math="0" shadow="0"><root><mxCell id="0"/><mxCell id="1" parent="0"/><mxCell id="2" value="" style="shape=folder;fontStyle=1;spacingTop=10;tabWidth=40;tabHeight=14;tabPosition=left;html=1;" parent="1" vertex="1"><mxGeometry x="130" y="160" width="550" height="380" as="geometry"/></mxCell><mxCell id="3" value="VideoFrame&#10;Receiver" style="shape=module;align=left;spacingLeft=20;align=center;verticalAlign=top;" parent="1" vertex="1"><mxGeometry x="350" y="220" width="100" height="50" as="geometry"/></mxCell><mxCell id="14" style="edgeStyle=orthogonalEdgeStyle;rounded=0;orthogonalLoop=1;jettySize=auto;html=1;startArrow=none;startFill=0;endArrow=open;endFill=0;" parent="1" source="4" target="5" edge="1"><mxGeometry relative="1" as="geometry"/></mxCell><mxCell id="4" value="Model" style="shape=module;align=left;spacingLeft=20;align=center;verticalAlign=top;" parent="1" vertex="1"><mxGeometry x="350" y="430" width="100" height="50" as="geometry"/></mxCell><mxCell id="5" value="View" style="shape=module;align=left;spacingLeft=20;align=center;verticalAlign=top;" parent="1" vertex="1"><mxGeometry x="180" y="430" width="100" height="50" as="geometry"/></mxCell><mxCell id="11" style="edgeStyle=orthogonalEdgeStyle;rounded=0;orthogonalLoop=1;jettySize=auto;html=1;startArrow=none;startFill=0;endArrow=open;endFill=0;" parent="1" source="6" target="4" edge="1"><mxGeometry relative="1" as="geometry"/></mxCell><mxCell id="6" value="Controller" style="shape=module;align=left;spacingLeft=20;align=center;verticalAlign=top;" parent="1" vertex="1"><mxGeometry x="350" y="325" width="100" height="50" as="geometry"/></mxCell><mxCell id="15" value="VideoReceiver will be in main.py because that way it is easier to keep track of all threads and async-scripts running!" style="text;html=1;strokeColor=none;fillColor=none;align=center;verticalAlign=middle;whiteSpace=wrap;rounded=0;" vertex="1" parent="1"><mxGeometry x="130" y="100" width="330" height="30" as="geometry"/></mxCell></root></mxGraphModel></diagram></mxfile>